<?xml version="1.0" standalone="no"?>
<!DOCTYPE svg PUBLIC "-//W3C//DTD SVG 20010904//EN"
 "http://www.w3.org/TR/2001/REC-SVG-20010904/DTD/svg10.dtd">
<svg version="1.0" xmlns="http://www.w3.org/2000/svg"
 width="768.000000pt" height="768.000000pt" viewBox="0 0 768.000000 768.000000"
 preserveAspectRatio="xMidYMid meet">
<metadata>
Created by potrace 1.14, written by Peter Selinger 2001-2017
</metadata>
<g transform="translate(0.000000,768.000000) scale(0.100000,-0.100000)"
fill="#000000" stroke="none">
<path d="M183 7582 l-23 -3 0 -3719 0 -3718 71 -4 c39 -2 72 -1 74 2 2 3 56 3
120 0 64 -3 118 -3 120 0 2 3 56 3 120 0 64 -3 118 -3 120 0 2 3 56 3 120 0
64 -3 118 -3 120 0 2 3 56 3 120 0 64 -3 118 -3 120 0 2 3 56 3 120 0 64 -3
118 -3 120 0 2 3 56 3 120 0 64 -3 118 -3 120 0 2 3 56 3 120 0 64 -3 118 -3
120 0 2 3 56 3 120 0 64 -3 118 -3 120 0 2 3 56 3 120 0 64 -3 118 -3 120 0 2
3 56 3 120 0 64 -3 118 -3 120 0 2 3 56 3 120 0 64 -3 119 -2 122 3 2 4 8 5
13 2 10 -6 272 -7 405 0 142 6 283 19 350 31 17 3 48 7 70 10 22 2 51 6 65 9
14 3 36 7 50 10 14 3 36 7 50 10 14 3 41 8 60 11 59 11 63 12 110 23 25 7 53
13 62 16 100 23 428 128 503 160 17 7 62 25 100 40 79 31 123 49 179 76 22 11
46 19 53 19 7 0 13 4 13 8 0 9 69 42 88 42 5 0 12 4 14 8 2 5 37 27 78 49 90
48 153 85 160 93 3 4 21 15 40 26 19 10 37 21 40 24 3 3 21 17 40 30 66 45
185 134 240 180 98 81 122 103 260 240 116 116 159 161 243 260 7 8 28 35 47
60 19 25 39 50 45 57 5 7 16 19 22 27 7 8 25 34 40 58 16 24 34 50 41 58 20
24 123 189 160 260 86 160 159 309 167 340 2 5 15 39 38 95 6 17 12 32 13 35
0 3 4 14 8 25 20 51 34 91 35 97 1 4 3 13 6 20 25 77 38 125 70 253 20 83 39
161 41 175 2 14 6 36 8 50 3 13 8 42 11 65 3 22 8 47 10 55 2 8 7 40 11 70 3
30 8 69 10 85 7 58 15 181 19 295 7 194 7 238 1 249 -4 5 -2 12 4 16 6 4 8 11
5 16 -4 5 -8 66 -10 137 -3 70 -7 143 -10 162 -3 19 -7 62 -10 95 -5 53 -25
177 -40 245 -3 14 -7 39 -10 55 -15 99 -86 345 -147 510 -41 110 -39 107 -97
228 -28 60 -51 112 -51 117 0 4 -3 10 -7 12 -5 2 -20 28 -36 58 -40 80 -91
168 -105 182 -7 7 -12 18 -12 25 0 7 -4 13 -10 13 -5 0 -10 4 -10 10 0 11
-170 262 -190 280 -3 3 -24 28 -46 57 -112 142 -340 380 -463 482 -299 249
-642 459 -966 591 -11 4 -36 15 -56 24 -35 15 -246 92 -261 95 -4 1 -13 3 -20
6 -26 8 -154 47 -168 50 -8 2 -30 8 -47 14 -18 5 -33 8 -33 5 0 -3 -8 0 -19 5
-10 6 -31 13 -47 16 -16 2 -40 7 -54 10 -14 3 -36 8 -50 11 -14 3 -33 7 -42
10 -20 6 -53 13 -93 19 -16 2 -41 6 -55 9 -48 10 -159 26 -167 25 -4 -1 -10 0
-13 1 -6 2 -35 6 -115 16 -190 23 -425 26 -1884 28 -823 0 -1506 0 -1518 -2z
m3142 -1495 c17 -3 55 -8 85 -12 30 -4 66 -9 80 -11 14 -2 41 -7 60 -9 49 -7
189 -40 245 -56 185 -56 318 -108 425 -166 84 -46 247 -152 282 -184 14 -13
44 -39 66 -56 22 -18 79 -74 128 -125 130 -133 134 -138 134 -148 0 -4 3 -10
8 -12 4 -1 26 -28 48 -58 58 -77 100 -143 172 -276 26 -47 72 -157 102 -244
18 -52 35 -102 38 -110 3 -8 6 -19 7 -25 2 -5 11 -39 20 -75 9 -36 18 -69 19
-75 27 -126 36 -172 41 -220 3 -22 7 -51 10 -65 22 -106 22 -535 0 -648 -2
-10 -6 -45 -9 -77 -4 -32 -8 -61 -10 -64 -2 -3 -7 -22 -10 -41 -3 -19 -8 -45
-11 -57 -3 -13 -7 -31 -9 -41 -57 -254 -196 -556 -348 -757 -126 -167 -266
-321 -368 -404 -14 -11 -41 -34 -61 -50 -20 -17 -41 -31 -47 -31 -6 0 -15 -6
-19 -13 -4 -7 -19 -18 -33 -25 -33 -16 -64 -35 -70 -44 -10 -13 -255 -125
-331 -151 -75 -25 -246 -75 -284 -83 -11 -2 -45 -9 -75 -15 -30 -6 -62 -13
-70 -14 -8 -2 -15 -4 -15 -5 0 -1 -18 -3 -40 -5 -22 -2 -58 -6 -80 -9 -112
-16 -225 -19 -882 -20 -484 -1 -714 2 -716 9 -3 9 -1 4410 2 4461 l1 21 743
-3 c408 -1 756 -5 772 -7z"/>
</g>
</svg>
